<mxfile host="app.diagrams.net" modified="2024-05-14T23:57:30.122Z" agent="Mozilla/5.0 (Windows NT 10.0; Win64; x64) AppleWebKit/537.36 (KHTML, like Gecko) Chrome/123.0.0.0 Safari/537.36 OPR/109.0.0.0" etag="yr5f9YHI1jZLIpPg05wj" version="24.4.0" type="github">
  <diagram name="Page-1" id="2YBvvXClWsGukQMizWep">
    <mxGraphModel dx="2018" dy="1178" grid="1" gridSize="10" guides="1" tooltips="1" connect="1" arrows="1" fold="1" page="1" pageScale="1" pageWidth="850" pageHeight="1100" math="0" shadow="0">
      <root>
        <mxCell id="0" />
        <mxCell id="1" parent="0" />
        <mxCell id="cLZ0uwshkvB2Ed8EsgIz-38" value="" style="endArrow=none;html=1;rounded=0;" edge="1" parent="1">
          <mxGeometry width="50" height="50" relative="1" as="geometry">
            <mxPoint x="1420" y="388" as="sourcePoint" />
            <mxPoint x="1075" y="388" as="targetPoint" />
          </mxGeometry>
        </mxCell>
        <mxCell id="cLZ0uwshkvB2Ed8EsgIz-46" style="edgeStyle=orthogonalEdgeStyle;rounded=0;orthogonalLoop=1;jettySize=auto;html=1;endArrow=none;endFill=0;dashed=1;" edge="1" parent="1" source="cLZ0uwshkvB2Ed8EsgIz-45">
          <mxGeometry relative="1" as="geometry">
            <mxPoint x="845" y="868" as="targetPoint" />
          </mxGeometry>
        </mxCell>
        <mxCell id="aM9ryv3xv72pqoxQDRHE-1" value="Usuário" style="shape=umlLifeline;perimeter=lifelinePerimeter;whiteSpace=wrap;html=1;container=0;dropTarget=0;collapsible=0;recursiveResize=0;outlineConnect=0;portConstraint=eastwest;newEdgeStyle={&quot;edgeStyle&quot;:&quot;elbowEdgeStyle&quot;,&quot;elbow&quot;:&quot;vertical&quot;,&quot;curved&quot;:0,&quot;rounded&quot;:0};" parent="1" vertex="1">
          <mxGeometry x="340" y="208" width="100" height="660" as="geometry" />
        </mxCell>
        <mxCell id="aM9ryv3xv72pqoxQDRHE-2" value="" style="html=1;points=[];perimeter=orthogonalPerimeter;outlineConnect=0;targetShapes=umlLifeline;portConstraint=eastwest;newEdgeStyle={&quot;edgeStyle&quot;:&quot;elbowEdgeStyle&quot;,&quot;elbow&quot;:&quot;vertical&quot;,&quot;curved&quot;:0,&quot;rounded&quot;:0};" parent="aM9ryv3xv72pqoxQDRHE-1" vertex="1">
          <mxGeometry x="45" y="70" width="10" height="550" as="geometry" />
        </mxCell>
        <mxCell id="aM9ryv3xv72pqoxQDRHE-7" value="inserirCartão()" style="html=1;verticalAlign=bottom;endArrow=block;edgeStyle=elbowEdgeStyle;elbow=vertical;curved=0;rounded=0;" parent="1" source="aM9ryv3xv72pqoxQDRHE-2" target="aM9ryv3xv72pqoxQDRHE-6" edge="1">
          <mxGeometry relative="1" as="geometry">
            <mxPoint x="495" y="288" as="sourcePoint" />
            <Array as="points">
              <mxPoint x="480" y="278" />
            </Array>
          </mxGeometry>
        </mxCell>
        <mxCell id="cLZ0uwshkvB2Ed8EsgIz-8" value="validarCartão()" style="html=1;verticalAlign=bottom;endArrow=block;edgeStyle=elbowEdgeStyle;elbow=horizontal;curved=0;rounded=0;" edge="1" parent="1">
          <mxGeometry relative="1" as="geometry">
            <mxPoint x="570" y="278" as="sourcePoint" />
            <Array as="points">
              <mxPoint x="655" y="278" />
            </Array>
            <mxPoint x="720" y="278" as="targetPoint" />
          </mxGeometry>
        </mxCell>
        <mxCell id="cLZ0uwshkvB2Ed8EsgIz-9" value="Conta" style="shape=umlLifeline;perimeter=lifelinePerimeter;whiteSpace=wrap;html=1;container=0;dropTarget=0;collapsible=0;recursiveResize=0;outlineConnect=0;portConstraint=eastwest;newEdgeStyle={&quot;edgeStyle&quot;:&quot;elbowEdgeStyle&quot;,&quot;elbow&quot;:&quot;vertical&quot;,&quot;curved&quot;:0,&quot;rounded&quot;:0};" vertex="1" parent="1">
          <mxGeometry x="1124" y="198" width="100" height="650" as="geometry" />
        </mxCell>
        <mxCell id="cLZ0uwshkvB2Ed8EsgIz-86" value="" style="html=1;points=[];perimeter=orthogonalPerimeter;outlineConnect=0;targetShapes=umlLifeline;portConstraint=eastwest;newEdgeStyle={&quot;edgeStyle&quot;:&quot;elbowEdgeStyle&quot;,&quot;elbow&quot;:&quot;vertical&quot;,&quot;curved&quot;:0,&quot;rounded&quot;:0};" vertex="1" parent="cLZ0uwshkvB2Ed8EsgIz-9">
          <mxGeometry x="45" y="540" width="10" height="70" as="geometry" />
        </mxCell>
        <mxCell id="cLZ0uwshkvB2Ed8EsgIz-14" value="retorna validação" style="html=1;verticalAlign=bottom;endArrow=block;edgeStyle=elbowEdgeStyle;elbow=horizontal;curved=0;rounded=0;exitX=0.1;exitY=0.714;exitDx=0;exitDy=0;exitPerimeter=0;" edge="1" parent="1" target="cLZ0uwshkvB2Ed8EsgIz-2">
          <mxGeometry x="0.2475" relative="1" as="geometry">
            <mxPoint x="1169" y="417.9699999999999" as="sourcePoint" />
            <Array as="points">
              <mxPoint x="954" y="418" />
            </Array>
            <mxPoint x="869" y="418" as="targetPoint" />
            <mxPoint as="offset" />
          </mxGeometry>
        </mxCell>
        <mxCell id="cLZ0uwshkvB2Ed8EsgIz-15" value="retorna validação" style="html=1;verticalAlign=bottom;endArrow=block;edgeStyle=elbowEdgeStyle;elbow=horizontal;curved=0;rounded=0;" edge="1" parent="1">
          <mxGeometry x="0.3962" relative="1" as="geometry">
            <mxPoint x="840" y="417.71000000000026" as="sourcePoint" />
            <Array as="points">
              <mxPoint x="655" y="417.71000000000004" />
            </Array>
            <mxPoint x="575" y="417.71000000000026" as="targetPoint" />
            <mxPoint as="offset" />
          </mxGeometry>
        </mxCell>
        <mxCell id="cLZ0uwshkvB2Ed8EsgIz-17" value="solicitar senha" style="html=1;verticalAlign=bottom;endArrow=block;edgeStyle=elbowEdgeStyle;elbow=vertical;curved=0;rounded=0;" edge="1" parent="1">
          <mxGeometry relative="1" as="geometry">
            <mxPoint x="565" y="416" as="sourcePoint" />
            <Array as="points">
              <mxPoint x="480" y="416" />
            </Array>
            <mxPoint x="395" y="416" as="targetPoint" />
            <mxPoint as="offset" />
          </mxGeometry>
        </mxCell>
        <mxCell id="cLZ0uwshkvB2Ed8EsgIz-18" value="validarConta()" style="html=1;verticalAlign=bottom;endArrow=block;edgeStyle=elbowEdgeStyle;elbow=horizontal;curved=0;rounded=0;entryX=-0.001;entryY=0.37;entryDx=0;entryDy=0;entryPerimeter=0;" edge="1" parent="1" target="cLZ0uwshkvB2Ed8EsgIz-34">
          <mxGeometry x="0.0392" relative="1" as="geometry">
            <mxPoint x="850" y="353" as="sourcePoint" />
            <Array as="points">
              <mxPoint x="935" y="353" />
            </Array>
            <mxPoint x="1076.58" y="354.78" as="targetPoint" />
            <mxPoint as="offset" />
          </mxGeometry>
        </mxCell>
        <mxCell id="cLZ0uwshkvB2Ed8EsgIz-26" value="&lt;span style=&quot;color: rgb(0, 0, 0); font-family: Helvetica; font-size: 11px; font-style: normal; font-variant-ligatures: normal; font-variant-caps: normal; font-weight: 400; letter-spacing: normal; orphans: 2; text-align: center; text-indent: 0px; text-transform: none; widows: 2; word-spacing: 0px; -webkit-text-stroke-width: 0px; white-space: nowrap; background-color: rgb(255, 255, 255); text-decoration-thickness: initial; text-decoration-style: initial; text-decoration-color: initial; display: inline !important; float: none;&quot;&gt;throw new Exception &quot;Cartão inválido&quot;&lt;/span&gt;" style="text;whiteSpace=wrap;html=1;" vertex="1" parent="1">
          <mxGeometry x="885" y="274" width="80" height="20" as="geometry" />
        </mxCell>
        <mxCell id="cLZ0uwshkvB2Ed8EsgIz-27" value="if (!existeCartao)" style="shape=umlFrame;whiteSpace=wrap;html=1;pointerEvents=0;width=100;height=30;" vertex="1" parent="1">
          <mxGeometry x="720" y="248" width="700" height="180" as="geometry" />
        </mxCell>
        <mxCell id="cLZ0uwshkvB2Ed8EsgIz-31" value="" style="endArrow=none;html=1;rounded=0;exitX=0.005;exitY=0.062;exitDx=0;exitDy=0;exitPerimeter=0;entryX=0;entryY=0;entryDx=0;entryDy=0;" edge="1" parent="1" source="cLZ0uwshkvB2Ed8EsgIz-34" target="cLZ0uwshkvB2Ed8EsgIz-32">
          <mxGeometry width="50" height="50" relative="1" as="geometry">
            <mxPoint x="1220" y="326" as="sourcePoint" />
            <mxPoint x="720" y="321" as="targetPoint" />
          </mxGeometry>
        </mxCell>
        <mxCell id="cLZ0uwshkvB2Ed8EsgIz-32" value="&lt;div style=&quot;text-align: center;&quot;&gt;&lt;span style=&quot;font-size: 11px; text-wrap: nowrap; background-color: rgb(255, 255, 255);&quot;&gt;else&lt;/span&gt;&lt;/div&gt;" style="text;whiteSpace=wrap;html=1;" vertex="1" parent="1">
          <mxGeometry x="721" y="316" width="80" height="20" as="geometry" />
        </mxCell>
        <mxCell id="cLZ0uwshkvB2Ed8EsgIz-33" value="" style="html=1;points=[];perimeter=orthogonalPerimeter;outlineConnect=0;targetShapes=umlLifeline;portConstraint=eastwest;newEdgeStyle={&quot;edgeStyle&quot;:&quot;elbowEdgeStyle&quot;,&quot;elbow&quot;:&quot;vertical&quot;,&quot;curved&quot;:0,&quot;rounded&quot;:0};" vertex="1" parent="1">
          <mxGeometry x="1179" y="343" width="9" height="20" as="geometry" />
        </mxCell>
        <mxCell id="cLZ0uwshkvB2Ed8EsgIz-34" value="if (!existeConta)" style="shape=umlFrame;whiteSpace=wrap;html=1;pointerEvents=0;width=100;height=30;" vertex="1" parent="1">
          <mxGeometry x="1075" y="308" width="345" height="120" as="geometry" />
        </mxCell>
        <mxCell id="cLZ0uwshkvB2Ed8EsgIz-36" style="edgeStyle=elbowEdgeStyle;rounded=0;orthogonalLoop=1;jettySize=auto;html=1;elbow=vertical;curved=0;" edge="1" parent="1" source="cLZ0uwshkvB2Ed8EsgIz-33" target="cLZ0uwshkvB2Ed8EsgIz-33">
          <mxGeometry relative="1" as="geometry" />
        </mxCell>
        <mxCell id="cLZ0uwshkvB2Ed8EsgIz-37" value="&lt;span style=&quot;color: rgb(0, 0, 0); font-family: Helvetica; font-size: 11px; font-style: normal; font-variant-ligatures: normal; font-variant-caps: normal; font-weight: 400; letter-spacing: normal; orphans: 2; text-align: center; text-indent: 0px; text-transform: none; widows: 2; word-spacing: 0px; -webkit-text-stroke-width: 0px; white-space: nowrap; background-color: rgb(255, 255, 255); text-decoration-thickness: initial; text-decoration-style: initial; text-decoration-color: initial; display: inline !important; float: none;&quot;&gt;throw new Exception &quot;Conta inválida&quot;&lt;/span&gt;" style="text;whiteSpace=wrap;html=1;" vertex="1" parent="1">
          <mxGeometry x="1211" y="338" width="80" height="20" as="geometry" />
        </mxCell>
        <mxCell id="cLZ0uwshkvB2Ed8EsgIz-39" value="&lt;div style=&quot;text-align: center;&quot;&gt;&lt;span style=&quot;font-size: 11px; text-wrap: nowrap; background-color: rgb(255, 255, 255);&quot;&gt;else&lt;/span&gt;&lt;/div&gt;" style="text;whiteSpace=wrap;html=1;" vertex="1" parent="1">
          <mxGeometry x="1077" y="388" width="80" height="20" as="geometry" />
        </mxCell>
        <mxCell id="cLZ0uwshkvB2Ed8EsgIz-41" value="enviarSenha()" style="html=1;verticalAlign=bottom;endArrow=block;edgeStyle=elbowEdgeStyle;elbow=vertical;curved=0;rounded=0;" edge="1" parent="1">
          <mxGeometry relative="1" as="geometry">
            <mxPoint x="395" y="457" as="sourcePoint" />
            <Array as="points">
              <mxPoint x="480" y="457" />
            </Array>
            <mxPoint x="565" y="457" as="targetPoint" />
            <mxPoint as="offset" />
          </mxGeometry>
        </mxCell>
        <mxCell id="cLZ0uwshkvB2Ed8EsgIz-44" style="edgeStyle=orthogonalEdgeStyle;rounded=0;orthogonalLoop=1;jettySize=auto;html=1;dashed=1;endArrow=none;endFill=0;" edge="1" parent="1" source="cLZ0uwshkvB2Ed8EsgIz-42">
          <mxGeometry relative="1" as="geometry">
            <mxPoint x="570" y="858" as="targetPoint" />
          </mxGeometry>
        </mxCell>
        <mxCell id="cLZ0uwshkvB2Ed8EsgIz-42" value="Interface Banco" style="shape=umlBoundary;whiteSpace=wrap;html=1;" vertex="1" parent="1">
          <mxGeometry x="520" y="168" width="100" height="80" as="geometry" />
        </mxCell>
        <mxCell id="aM9ryv3xv72pqoxQDRHE-6" value="" style="html=1;points=[];perimeter=orthogonalPerimeter;outlineConnect=0;targetShapes=umlLifeline;portConstraint=eastwest;newEdgeStyle={&quot;edgeStyle&quot;:&quot;elbowEdgeStyle&quot;,&quot;elbow&quot;:&quot;vertical&quot;,&quot;curved&quot;:0,&quot;rounded&quot;:0};" parent="1" vertex="1">
          <mxGeometry x="565" y="278" width="10" height="550" as="geometry" />
        </mxCell>
        <mxCell id="cLZ0uwshkvB2Ed8EsgIz-19" value="" style="html=1;points=[];perimeter=orthogonalPerimeter;outlineConnect=0;targetShapes=umlLifeline;portConstraint=eastwest;newEdgeStyle={&quot;edgeStyle&quot;:&quot;elbowEdgeStyle&quot;,&quot;elbow&quot;:&quot;vertical&quot;,&quot;curved&quot;:0,&quot;rounded&quot;:0};" vertex="1" parent="1">
          <mxGeometry x="850" y="278" width="10" height="20" as="geometry" />
        </mxCell>
        <mxCell id="cLZ0uwshkvB2Ed8EsgIz-25" style="edgeStyle=elbowEdgeStyle;rounded=0;orthogonalLoop=1;jettySize=auto;html=1;elbow=vertical;curved=0;" edge="1" parent="1" source="cLZ0uwshkvB2Ed8EsgIz-19" target="cLZ0uwshkvB2Ed8EsgIz-19">
          <mxGeometry relative="1" as="geometry" />
        </mxCell>
        <mxCell id="cLZ0uwshkvB2Ed8EsgIz-2" value="" style="html=1;points=[];perimeter=orthogonalPerimeter;outlineConnect=0;targetShapes=umlLifeline;portConstraint=eastwest;newEdgeStyle={&quot;edgeStyle&quot;:&quot;elbowEdgeStyle&quot;,&quot;elbow&quot;:&quot;vertical&quot;,&quot;curved&quot;:0,&quot;rounded&quot;:0};" vertex="1" parent="1">
          <mxGeometry x="840" y="278" width="10" height="140" as="geometry" />
        </mxCell>
        <mxCell id="cLZ0uwshkvB2Ed8EsgIz-45" value="Controle Banco" style="ellipse;shape=umlControl;whiteSpace=wrap;html=1;" vertex="1" parent="1">
          <mxGeometry x="805" y="148" width="80" height="90" as="geometry" />
        </mxCell>
        <mxCell id="cLZ0uwshkvB2Ed8EsgIz-47" value="validarSenha()" style="html=1;verticalAlign=bottom;endArrow=block;edgeStyle=elbowEdgeStyle;elbow=vertical;curved=0;rounded=0;" edge="1" parent="1">
          <mxGeometry relative="1" as="geometry">
            <mxPoint x="575" y="456" as="sourcePoint" />
            <Array as="points">
              <mxPoint x="660" y="456" />
            </Array>
            <mxPoint x="720" y="456" as="targetPoint" />
            <mxPoint as="offset" />
          </mxGeometry>
        </mxCell>
        <mxCell id="cLZ0uwshkvB2Ed8EsgIz-49" value="if (tentativa &amp;lt; 3)" style="shape=umlFrame;whiteSpace=wrap;html=1;pointerEvents=0;width=100;height=30;" vertex="1" parent="1">
          <mxGeometry x="719" y="435" width="361" height="283" as="geometry" />
        </mxCell>
        <mxCell id="cLZ0uwshkvB2Ed8EsgIz-10" value="" style="html=1;points=[];perimeter=orthogonalPerimeter;outlineConnect=0;targetShapes=umlLifeline;portConstraint=eastwest;newEdgeStyle={&quot;edgeStyle&quot;:&quot;elbowEdgeStyle&quot;,&quot;elbow&quot;:&quot;vertical&quot;,&quot;curved&quot;:0,&quot;rounded&quot;:0};" vertex="1" parent="1">
          <mxGeometry x="1169" y="343" width="10" height="75" as="geometry" />
        </mxCell>
        <mxCell id="cLZ0uwshkvB2Ed8EsgIz-51" value="" style="endArrow=none;html=1;rounded=0;exitX=1.003;exitY=0.578;exitDx=0;exitDy=0;exitPerimeter=0;entryX=0;entryY=0;entryDx=0;entryDy=0;" edge="1" parent="1" source="cLZ0uwshkvB2Ed8EsgIz-58">
          <mxGeometry width="50" height="50" relative="1" as="geometry">
            <mxPoint x="1091.5" y="548" as="sourcePoint" />
            <mxPoint x="735.5" y="549" as="targetPoint" />
          </mxGeometry>
        </mxCell>
        <mxCell id="cLZ0uwshkvB2Ed8EsgIz-55" value="&lt;span style=&quot;color: rgb(0, 0, 0); font-family: Helvetica; font-size: 11px; font-style: normal; font-variant-ligatures: normal; font-variant-caps: normal; font-weight: 400; letter-spacing: normal; orphans: 2; text-align: center; text-indent: 0px; text-transform: none; widows: 2; word-spacing: 0px; -webkit-text-stroke-width: 0px; white-space: nowrap; background-color: rgb(255, 255, 255); text-decoration-thickness: initial; text-decoration-style: initial; text-decoration-color: initial; display: inline !important; float: none;&quot;&gt;throw new Exception &quot;Senha inválida!&quot;&lt;/span&gt;" style="text;whiteSpace=wrap;html=1;" vertex="1" parent="1">
          <mxGeometry x="885" y="504" width="80" height="20" as="geometry" />
        </mxCell>
        <mxCell id="cLZ0uwshkvB2Ed8EsgIz-56" value="" style="html=1;points=[];perimeter=orthogonalPerimeter;outlineConnect=0;targetShapes=umlLifeline;portConstraint=eastwest;newEdgeStyle={&quot;edgeStyle&quot;:&quot;elbowEdgeStyle&quot;,&quot;elbow&quot;:&quot;vertical&quot;,&quot;curved&quot;:0,&quot;rounded&quot;:0};" vertex="1" parent="1">
          <mxGeometry x="850" y="508" width="10" height="20" as="geometry" />
        </mxCell>
        <mxCell id="cLZ0uwshkvB2Ed8EsgIz-57" style="edgeStyle=elbowEdgeStyle;rounded=0;orthogonalLoop=1;jettySize=auto;html=1;elbow=vertical;curved=0;" edge="1" parent="1" source="cLZ0uwshkvB2Ed8EsgIz-56" target="cLZ0uwshkvB2Ed8EsgIz-56">
          <mxGeometry relative="1" as="geometry" />
        </mxCell>
        <mxCell id="cLZ0uwshkvB2Ed8EsgIz-58" value="if (senhaErrada)" style="shape=umlFrame;whiteSpace=wrap;html=1;pointerEvents=0;width=100;height=30;" vertex="1" parent="1">
          <mxGeometry x="735.5" y="468" width="344.5" height="137" as="geometry" />
        </mxCell>
        <mxCell id="cLZ0uwshkvB2Ed8EsgIz-59" value="&lt;div style=&quot;text-align: center;&quot;&gt;&lt;span style=&quot;font-size: 11px; text-wrap: nowrap; background-color: rgb(255, 255, 255);&quot;&gt;else&lt;/span&gt;&lt;/div&gt;" style="text;whiteSpace=wrap;html=1;" vertex="1" parent="1">
          <mxGeometry x="739.5" y="546" width="80" height="20" as="geometry" />
        </mxCell>
        <mxCell id="cLZ0uwshkvB2Ed8EsgIz-60" value="" style="endArrow=none;html=1;rounded=0;exitX=0.994;exitY=0.652;exitDx=0;exitDy=0;exitPerimeter=0;entryX=0;entryY=0;entryDx=0;entryDy=0;" edge="1" parent="1" source="cLZ0uwshkvB2Ed8EsgIz-49">
          <mxGeometry width="50" height="50" relative="1" as="geometry">
            <mxPoint x="1066.5" y="618" as="sourcePoint" />
            <mxPoint x="721" y="620" as="targetPoint" />
          </mxGeometry>
        </mxCell>
        <mxCell id="cLZ0uwshkvB2Ed8EsgIz-61" value="&lt;div style=&quot;text-align: center;&quot;&gt;&lt;span style=&quot;font-size: 11px; text-wrap: nowrap; background-color: rgb(255, 255, 255);&quot;&gt;else&lt;/span&gt;&lt;/div&gt;" style="text;whiteSpace=wrap;html=1;" vertex="1" parent="1">
          <mxGeometry x="721" y="618" width="80" height="20" as="geometry" />
        </mxCell>
        <mxCell id="cLZ0uwshkvB2Ed8EsgIz-65" value="" style="html=1;points=[];perimeter=orthogonalPerimeter;outlineConnect=0;targetShapes=umlLifeline;portConstraint=eastwest;newEdgeStyle={&quot;edgeStyle&quot;:&quot;elbowEdgeStyle&quot;,&quot;elbow&quot;:&quot;vertical&quot;,&quot;curved&quot;:0,&quot;rounded&quot;:0};" vertex="1" parent="1">
          <mxGeometry x="841" y="638" width="10" height="70" as="geometry" />
        </mxCell>
        <mxCell id="cLZ0uwshkvB2Ed8EsgIz-69" style="edgeStyle=elbowEdgeStyle;rounded=0;orthogonalLoop=1;jettySize=auto;html=1;elbow=vertical;curved=0;" edge="1" parent="1">
          <mxGeometry relative="1" as="geometry">
            <mxPoint x="851" y="672" as="sourcePoint" />
            <mxPoint x="1169" y="672" as="targetPoint" />
            <Array as="points">
              <mxPoint x="880" y="672" />
            </Array>
          </mxGeometry>
        </mxCell>
        <mxCell id="cLZ0uwshkvB2Ed8EsgIz-70" value="&lt;div style=&quot;text-align: center;&quot;&gt;&lt;span style=&quot;font-size: 11px; text-wrap: nowrap; background-color: rgb(255, 255, 255);&quot;&gt;bloquearCartao()&lt;/span&gt;&lt;/div&gt;" style="text;whiteSpace=wrap;html=1;" vertex="1" parent="1">
          <mxGeometry x="930" y="649" width="80" height="20" as="geometry" />
        </mxCell>
        <mxCell id="cLZ0uwshkvB2Ed8EsgIz-71" value="" style="html=1;points=[];perimeter=orthogonalPerimeter;outlineConnect=0;targetShapes=umlLifeline;portConstraint=eastwest;newEdgeStyle={&quot;edgeStyle&quot;:&quot;elbowEdgeStyle&quot;,&quot;elbow&quot;:&quot;vertical&quot;,&quot;curved&quot;:0,&quot;rounded&quot;:0};" vertex="1" parent="1">
          <mxGeometry x="1169" y="668" width="10" height="40" as="geometry" />
        </mxCell>
        <mxCell id="cLZ0uwshkvB2Ed8EsgIz-72" style="edgeStyle=elbowEdgeStyle;rounded=0;orthogonalLoop=1;jettySize=auto;html=1;elbow=vertical;curved=0;" edge="1" parent="1">
          <mxGeometry relative="1" as="geometry">
            <mxPoint x="1169" y="702" as="sourcePoint" />
            <mxPoint x="851" y="702" as="targetPoint" />
            <Array as="points">
              <mxPoint x="880" y="702" />
            </Array>
          </mxGeometry>
        </mxCell>
        <mxCell id="cLZ0uwshkvB2Ed8EsgIz-73" value="&lt;div style=&quot;text-align: center;&quot;&gt;&lt;span style=&quot;font-size: 11px; text-wrap: nowrap; background-color: rgb(255, 255, 255);&quot;&gt;cartão bloqueado&lt;/span&gt;&lt;/div&gt;" style="text;whiteSpace=wrap;html=1;" vertex="1" parent="1">
          <mxGeometry x="930" y="679" width="80" height="20" as="geometry" />
        </mxCell>
        <mxCell id="cLZ0uwshkvB2Ed8EsgIz-76" style="edgeStyle=elbowEdgeStyle;rounded=0;orthogonalLoop=1;jettySize=auto;html=1;elbow=vertical;curved=0;" edge="1" parent="1">
          <mxGeometry relative="1" as="geometry">
            <mxPoint x="840" y="578" as="sourcePoint" />
            <mxPoint x="575" y="578" as="targetPoint" />
            <Array as="points">
              <mxPoint x="604" y="578" />
            </Array>
          </mxGeometry>
        </mxCell>
        <mxCell id="cLZ0uwshkvB2Ed8EsgIz-50" value="" style="html=1;points=[];perimeter=orthogonalPerimeter;outlineConnect=0;targetShapes=umlLifeline;portConstraint=eastwest;newEdgeStyle={&quot;edgeStyle&quot;:&quot;elbowEdgeStyle&quot;,&quot;elbow&quot;:&quot;vertical&quot;,&quot;curved&quot;:0,&quot;rounded&quot;:0};" vertex="1" parent="1">
          <mxGeometry x="840" y="508" width="10" height="87" as="geometry" />
        </mxCell>
        <mxCell id="cLZ0uwshkvB2Ed8EsgIz-77" value="&lt;span style=&quot;font-size: 11px; text-wrap: nowrap; background-color: rgb(255, 255, 255);&quot;&gt;Perfeito, vamos começar&lt;/span&gt;" style="text;whiteSpace=wrap;html=1;" vertex="1" parent="1">
          <mxGeometry x="591" y="555" width="80" height="20" as="geometry" />
        </mxCell>
        <mxCell id="cLZ0uwshkvB2Ed8EsgIz-79" value="&lt;span style=&quot;color: rgb(0, 0, 0); font-family: Helvetica; font-size: 11px; font-style: normal; font-variant-ligatures: normal; font-variant-caps: normal; font-weight: 400; letter-spacing: normal; orphans: 2; text-align: center; text-indent: 0px; text-transform: none; widows: 2; word-spacing: 0px; -webkit-text-stroke-width: 0px; white-space: nowrap; background-color: rgb(255, 255, 255); text-decoration-thickness: initial; text-decoration-style: initial; text-decoration-color: initial; display: inline !important; float: none;&quot;&gt;Throw new Exception Número de tentativas excedido,&amp;nbsp;&lt;/span&gt;&lt;span style=&quot;background-color: rgb(255, 255, 255); font-size: 11px; text-align: center; text-wrap: nowrap;&quot;&gt;cartão bloqueado temporariamente!&lt;/span&gt;" style="text;whiteSpace=wrap;html=1;" vertex="1" parent="1">
          <mxGeometry x="884" y="629" width="80" height="20" as="geometry" />
        </mxCell>
        <mxCell id="cLZ0uwshkvB2Ed8EsgIz-80" value="" style="html=1;points=[];perimeter=orthogonalPerimeter;outlineConnect=0;targetShapes=umlLifeline;portConstraint=eastwest;newEdgeStyle={&quot;edgeStyle&quot;:&quot;elbowEdgeStyle&quot;,&quot;elbow&quot;:&quot;vertical&quot;,&quot;curved&quot;:0,&quot;rounded&quot;:0};" vertex="1" parent="1">
          <mxGeometry x="851" y="638" width="10" height="20" as="geometry" />
        </mxCell>
        <mxCell id="cLZ0uwshkvB2Ed8EsgIz-81" style="edgeStyle=elbowEdgeStyle;rounded=0;orthogonalLoop=1;jettySize=auto;html=1;elbow=vertical;curved=0;" edge="1" parent="1" source="cLZ0uwshkvB2Ed8EsgIz-80" target="cLZ0uwshkvB2Ed8EsgIz-80">
          <mxGeometry relative="1" as="geometry" />
        </mxCell>
        <mxCell id="cLZ0uwshkvB2Ed8EsgIz-82" value="sacar(Double)" style="html=1;verticalAlign=bottom;endArrow=block;edgeStyle=elbowEdgeStyle;elbow=vertical;curved=0;rounded=0;" edge="1" parent="1">
          <mxGeometry relative="1" as="geometry">
            <mxPoint x="395" y="738" as="sourcePoint" />
            <Array as="points">
              <mxPoint x="480" y="738" />
            </Array>
            <mxPoint x="565" y="738" as="targetPoint" />
            <mxPoint as="offset" />
          </mxGeometry>
        </mxCell>
        <mxCell id="cLZ0uwshkvB2Ed8EsgIz-83" value="validarSaque()" style="html=1;verticalAlign=bottom;endArrow=block;edgeStyle=elbowEdgeStyle;elbow=vertical;curved=0;rounded=0;" edge="1" parent="1" target="cLZ0uwshkvB2Ed8EsgIz-85">
          <mxGeometry relative="1" as="geometry">
            <mxPoint x="575" y="747" as="sourcePoint" />
            <Array as="points">
              <mxPoint x="660" y="747" />
            </Array>
            <mxPoint x="820" y="748" as="targetPoint" />
            <mxPoint as="offset" />
          </mxGeometry>
        </mxCell>
        <mxCell id="cLZ0uwshkvB2Ed8EsgIz-85" value="" style="html=1;points=[];perimeter=orthogonalPerimeter;outlineConnect=0;targetShapes=umlLifeline;portConstraint=eastwest;newEdgeStyle={&quot;edgeStyle&quot;:&quot;elbowEdgeStyle&quot;,&quot;elbow&quot;:&quot;vertical&quot;,&quot;curved&quot;:0,&quot;rounded&quot;:0};" vertex="1" parent="1">
          <mxGeometry x="840" y="741" width="10" height="77" as="geometry" />
        </mxCell>
        <mxCell id="cLZ0uwshkvB2Ed8EsgIz-87" value="sacar(Double)" style="html=1;verticalAlign=bottom;endArrow=block;edgeStyle=elbowEdgeStyle;elbow=vertical;curved=0;rounded=0;" edge="1" parent="1" target="cLZ0uwshkvB2Ed8EsgIz-86">
          <mxGeometry relative="1" as="geometry">
            <mxPoint x="851" y="758" as="sourcePoint" />
            <Array as="points">
              <mxPoint x="936" y="758" />
            </Array>
            <mxPoint x="1116" y="758" as="targetPoint" />
            <mxPoint as="offset" />
          </mxGeometry>
        </mxCell>
        <mxCell id="cLZ0uwshkvB2Ed8EsgIz-88" value="retorna saque" style="html=1;verticalAlign=bottom;endArrow=block;edgeStyle=elbowEdgeStyle;elbow=vertical;curved=0;rounded=0;" edge="1" parent="1">
          <mxGeometry relative="1" as="geometry">
            <mxPoint x="1168" y="803" as="sourcePoint" />
            <Array as="points">
              <mxPoint x="935" y="803" />
            </Array>
            <mxPoint x="850" y="803" as="targetPoint" />
            <mxPoint as="offset" />
          </mxGeometry>
        </mxCell>
        <mxCell id="cLZ0uwshkvB2Ed8EsgIz-90" value="&lt;div style=&quot;text-align: center;&quot;&gt;&lt;span style=&quot;font-size: 11px; text-wrap: nowrap; background-color: rgb(255, 255, 255);&quot;&gt;Atualiza o valor da conta&lt;/span&gt;&lt;/div&gt;" style="text;whiteSpace=wrap;html=1;" vertex="1" parent="1">
          <mxGeometry x="964" y="873" width="80" height="20" as="geometry" />
        </mxCell>
        <mxCell id="cLZ0uwshkvB2Ed8EsgIz-89" value="atualizar conta" style="shape=umlFrame;whiteSpace=wrap;html=1;pointerEvents=0;width=110;height=30;" vertex="1" parent="1">
          <mxGeometry x="830" y="848" width="350" height="70" as="geometry" />
        </mxCell>
        <mxCell id="cLZ0uwshkvB2Ed8EsgIz-91" value="saque bem sucedido" style="html=1;verticalAlign=bottom;endArrow=block;edgeStyle=elbowEdgeStyle;elbow=vertical;curved=0;rounded=0;" edge="1" parent="1">
          <mxGeometry relative="1" as="geometry">
            <mxPoint x="840" y="817" as="sourcePoint" />
            <Array as="points">
              <mxPoint x="660" y="817" />
            </Array>
            <mxPoint x="575" y="817" as="targetPoint" />
            <mxPoint as="offset" />
          </mxGeometry>
        </mxCell>
      </root>
    </mxGraphModel>
  </diagram>
</mxfile>
